<svg width="361" height="541" viewBox="0 0 361 541" fill="none" xmlns="http://www.w3.org/2000/svg">
<path d="M330.056 1H30.944C14.4064 1 1 14.4064 1 30.944V510.056C1 526.594 14.4064 540 30.944 540H330.056C346.594 540 360 526.594 360 510.056V30.944C360 14.4064 346.594 1 330.056 1Z" fill="white" stroke="black"/>
<path d="M15.5 30.502L10.5 37.502V44.502L15.5 37.502V80.502H20.5V30.502H15.5Z" fill="#FF5555"/>
<path d="M35.5 30.502C29.96 30.502 25.5 34.962 25.5 40.502V70.502C25.5 76.042 29.96 80.502 35.5 80.502C41.04 80.502 45.5 76.042 45.5 70.502V40.502C45.5 34.962 41.04 30.502 35.5 30.502ZM35.5 35.502C38.27 35.502 40.5 37.732 40.5 40.502V70.502C40.5 73.272 38.27 75.502 35.5 75.502C32.73 75.502 30.5 73.272 30.5 70.502V40.502C30.5 37.732 32.73 35.502 35.5 35.502Z" fill="#FF5555"/>
<path d="M345.5 510.5L350.5 503.5V496.5L345.5 503.5V460.5H340.5V510.5H345.5Z" fill="#FF5555"/>
<path d="M325.5 510.5C331.04 510.5 335.5 506.04 335.5 500.5V470.5C335.5 464.96 331.04 460.5 325.5 460.5C319.96 460.5 315.5 464.96 315.5 470.5V500.5C315.5 506.04 319.96 510.5 325.5 510.5ZM325.5 505.5C322.73 505.5 320.5 503.27 320.5 500.5V470.5C320.5 467.73 322.73 465.5 325.5 465.5C328.27 465.5 330.5 467.73 330.5 470.5V500.5C330.5 503.27 328.27 505.5 325.5 505.5Z" fill="#FF5555"/>
<path d="M100.5 70.5C100.5 70.5 102.32 59.347 105.833 55.833C109.347 52.319 115.531 50.5 120.5 50.5C125.469 50.5 131.653 52.32 135.167 55.833C138.681 59.347 140.5 65.531 140.5 70.5C140.5 75.469 137.833 82.5 135.167 85.167C132.5 87.834 129.834 89.167 127.167 91.834C124.5 94.501 123.167 94.501 120.5 97.167C117.833 99.834 116.5 101.167 113.833 103.834C111.166 106.501 107.166 111.834 104.5 117.167C101.833 122.5 100.5 130.5 100.5 130.5C100.5 130.5 99.167 122.5 96.5 117.167C93.833 111.834 89.833 106.5 87.167 103.834C84.5 101.167 83.167 99.834 80.5 97.167C77.833 94.5 76.5 94.5 73.833 91.834C71.166 89.167 68.5 87.834 65.833 85.167C63.166 82.5 60.5 75.469 60.5 70.5C60.5 65.531 62.32 59.347 65.833 55.833C69.347 52.319 75.531 50.5 80.5 50.5C85.469 50.5 91.653 52.32 95.167 55.833C98.681 59.347 100.5 70.5 100.5 70.5Z" fill="#FF5555"/>
<path d="M260.5 70.5C260.5 70.5 262.32 59.347 265.833 55.833C269.347 52.319 275.531 50.5 280.5 50.5C285.469 50.5 291.653 52.32 295.167 55.833C298.681 59.347 300.5 65.531 300.5 70.5C300.5 75.469 297.833 82.5 295.167 85.167C292.5 87.834 289.834 89.167 287.167 91.834C284.5 94.501 283.167 94.501 280.5 97.167C277.833 99.834 276.5 101.167 273.833 103.834C271.166 106.501 267.166 111.834 264.5 117.167C261.833 122.5 260.5 130.5 260.5 130.5C260.5 130.5 259.167 122.5 256.5 117.167C253.833 111.834 249.833 106.5 247.167 103.834C244.5 101.167 243.167 99.834 240.5 97.167C237.833 94.5 236.5 94.5 233.833 91.834C231.166 89.167 228.5 87.834 225.833 85.167C223.166 82.5 220.5 75.469 220.5 70.5C220.5 65.531 222.32 59.347 225.833 55.833C229.347 52.319 235.531 50.5 240.5 50.5C245.469 50.5 251.653 52.32 255.167 55.833C258.681 59.347 260.5 70.5 260.5 70.5Z" fill="#FF5555"/>
<path d="M180.5 130.5C180.5 130.5 182.32 119.347 185.833 115.833C189.347 112.319 195.531 110.5 200.5 110.5C205.469 110.5 211.653 112.32 215.167 115.833C218.681 119.347 220.5 125.531 220.5 130.5C220.5 135.469 217.833 142.5 215.167 145.167C212.5 147.834 209.834 149.167 207.167 151.834C204.5 154.501 203.167 154.501 200.5 157.167C197.833 159.834 196.5 161.167 193.833 163.834C191.166 166.501 187.166 171.834 184.5 177.167C181.833 182.5 180.5 190.5 180.5 190.5C180.5 190.5 179.167 182.5 176.5 177.167C173.833 171.834 169.833 166.5 167.167 163.834C164.5 161.167 163.167 159.834 160.5 157.167C157.833 154.5 156.5 154.5 153.833 151.834C151.166 149.167 148.5 147.834 145.833 145.167C143.166 142.5 140.5 135.469 140.5 130.5C140.5 125.531 142.32 119.347 145.833 115.833C149.347 112.319 155.531 110.5 160.5 110.5C165.469 110.5 171.653 112.32 175.167 115.833C178.681 119.347 180.5 130.5 180.5 130.5Z" fill="#FF5555"/>
<path d="M100.5 190.5C100.5 190.5 102.32 179.347 105.833 175.833C109.347 172.319 115.531 170.5 120.5 170.5C125.469 170.5 131.653 172.32 135.167 175.833C138.681 179.347 140.5 185.531 140.5 190.5C140.5 195.469 137.833 202.5 135.167 205.167C132.5 207.834 129.834 209.167 127.167 211.834C124.5 214.501 123.167 214.501 120.5 217.167C117.833 219.834 116.5 221.167 113.833 223.834C111.166 226.501 107.166 231.834 104.5 237.167C101.833 242.5 100.5 250.5 100.5 250.5C100.5 250.5 99.167 242.5 96.5 237.167C93.833 231.834 89.833 226.5 87.167 223.834C84.5 221.167 83.167 219.834 80.5 217.167C77.833 214.5 76.5 214.5 73.833 211.834C71.166 209.167 68.5 207.834 65.833 205.167C63.166 202.5 60.5 195.469 60.5 190.5C60.5 185.531 62.32 179.347 65.833 175.833C69.347 172.319 75.531 170.5 80.5 170.5C85.469 170.5 91.653 172.32 95.167 175.833C98.681 179.347 100.5 190.5 100.5 190.5Z" fill="#FF5555"/>
<path d="M260.5 190.5C260.5 190.5 262.32 179.347 265.833 175.833C269.347 172.319 275.531 170.5 280.5 170.5C285.469 170.5 291.653 172.32 295.167 175.833C298.681 179.347 300.5 185.531 300.5 190.5C300.5 195.469 297.833 202.5 295.167 205.167C292.5 207.834 289.834 209.167 287.167 211.834C284.5 214.501 283.167 214.501 280.5 217.167C277.833 219.834 276.5 221.167 273.833 223.834C271.166 226.501 267.166 231.834 264.5 237.167C261.833 242.5 260.5 250.5 260.5 250.5C260.5 250.5 259.167 242.5 256.5 237.167C253.833 231.834 249.833 226.5 247.167 223.834C244.5 221.167 243.167 219.834 240.5 217.167C237.833 214.5 236.5 214.5 233.833 211.834C231.166 209.167 228.5 207.834 225.833 205.167C223.166 202.5 220.5 195.469 220.5 190.5C220.5 185.531 222.32 179.347 225.833 175.833C229.347 172.319 235.531 170.5 240.5 170.5C245.469 170.5 251.653 172.32 255.167 175.833C258.681 179.347 260.5 190.5 260.5 190.5Z" fill="#FF5555"/>
<path d="M100.5 470.5C100.5 470.5 102.32 481.653 105.833 485.167C109.347 488.681 115.531 490.5 120.5 490.5C125.469 490.5 131.653 488.68 135.167 485.167C138.681 481.653 140.5 475.469 140.5 470.5C140.5 465.531 137.833 458.5 135.167 455.833C132.5 453.166 129.834 451.833 127.167 449.166C124.5 446.499 123.167 446.499 120.5 443.833C117.833 441.166 116.5 439.833 113.833 437.166C111.166 434.499 107.166 429.166 104.5 423.833C101.833 418.5 100.5 410.5 100.5 410.5C100.5 410.5 99.167 418.5 96.5 423.833C93.833 429.166 89.833 434.5 87.167 437.166C84.5 439.833 83.167 441.166 80.5 443.833C77.833 446.5 76.5 446.5 73.833 449.166C71.166 451.833 68.5 453.166 65.833 455.833C63.166 458.5 60.5 465.531 60.5 470.5C60.5 475.469 62.32 481.653 65.833 485.167C69.347 488.681 75.531 490.5 80.5 490.5C85.469 490.5 91.653 488.68 95.167 485.167C98.681 481.653 100.5 470.5 100.5 470.5Z" fill="#FF5555"/>
<path d="M260.5 470.5C260.5 470.5 262.32 481.653 265.833 485.167C269.347 488.681 275.531 490.5 280.5 490.5C285.469 490.5 291.653 488.68 295.167 485.167C298.681 481.653 300.5 475.469 300.5 470.5C300.5 465.531 297.833 458.5 295.167 455.833C292.5 453.166 289.834 451.833 287.167 449.166C284.5 446.499 283.167 446.499 280.5 443.833C277.833 441.166 276.5 439.833 273.833 437.166C271.166 434.499 267.166 429.166 264.5 423.833C261.833 418.5 260.5 410.5 260.5 410.5C260.5 410.5 259.167 418.5 256.5 423.833C253.833 429.166 249.833 434.5 247.167 437.166C244.5 439.833 243.167 441.166 240.5 443.833C237.833 446.5 236.5 446.5 233.833 449.166C231.166 451.833 228.5 453.166 225.833 455.833C223.166 458.5 220.5 465.531 220.5 470.5C220.5 475.469 222.32 481.653 225.833 485.167C229.347 488.681 235.531 490.5 240.5 490.5C245.469 490.5 251.653 488.68 255.167 485.167C258.681 481.653 260.5 470.5 260.5 470.5Z" fill="#FF5555"/>
<path d="M180.5 410.5C180.5 410.5 182.32 421.653 185.833 425.167C189.347 428.681 195.531 430.5 200.5 430.5C205.469 430.5 211.653 428.68 215.167 425.167C218.681 421.653 220.5 415.469 220.5 410.5C220.5 405.531 217.833 398.5 215.167 395.833C212.5 393.166 209.834 391.833 207.167 389.166C204.5 386.499 203.167 386.499 200.5 383.833C197.833 381.166 196.5 379.833 193.833 377.166C191.166 374.499 187.166 369.166 184.5 363.833C181.833 358.5 180.5 350.5 180.5 350.5C180.5 350.5 179.167 358.5 176.5 363.833C173.833 369.166 169.833 374.5 167.167 377.166C164.5 379.833 163.167 381.166 160.5 383.833C157.833 386.5 156.5 386.5 153.833 389.166C151.166 391.833 148.5 393.166 145.833 395.833C143.166 398.5 140.5 405.531 140.5 410.5C140.5 415.469 142.32 421.653 145.833 425.167C149.347 428.681 155.531 430.5 160.5 430.5C165.469 430.5 171.653 428.68 175.167 425.167C178.681 421.653 180.5 410.5 180.5 410.5Z" fill="#FF5555"/>
<path d="M100.5 350.5C100.5 350.5 102.32 361.653 105.833 365.167C109.347 368.681 115.531 370.5 120.5 370.5C125.469 370.5 131.653 368.68 135.167 365.167C138.681 361.653 140.5 355.469 140.5 350.5C140.5 345.531 137.833 338.5 135.167 335.833C132.5 333.166 129.834 331.833 127.167 329.166C124.5 326.499 123.167 326.499 120.5 323.833C117.833 321.166 116.5 319.833 113.833 317.166C111.166 314.499 107.166 309.166 104.5 303.833C101.833 298.5 100.5 290.5 100.5 290.5C100.5 290.5 99.167 298.5 96.5 303.833C93.833 309.166 89.833 314.5 87.167 317.166C84.5 319.833 83.167 321.166 80.5 323.833C77.833 326.5 76.5 326.5 73.833 329.166C71.166 331.833 68.5 333.166 65.833 335.833C63.166 338.5 60.5 345.531 60.5 350.5C60.5 355.469 62.32 361.653 65.833 365.167C69.347 368.681 75.531 370.5 80.5 370.5C85.469 370.5 91.653 368.68 95.167 365.167C98.681 361.653 100.5 350.5 100.5 350.5Z" fill="#FF5555"/>
<path d="M260.5 350.5C260.5 350.5 262.32 361.653 265.833 365.167C269.347 368.681 275.531 370.5 280.5 370.5C285.469 370.5 291.653 368.68 295.167 365.167C298.681 361.653 300.5 355.469 300.5 350.5C300.5 345.531 297.833 338.5 295.167 335.833C292.5 333.166 289.834 331.833 287.167 329.166C284.5 326.499 283.167 326.499 280.5 323.833C277.833 321.166 276.5 319.833 273.833 317.166C271.166 314.499 267.166 309.166 264.5 303.833C261.833 298.5 260.5 290.5 260.5 290.5C260.5 290.5 259.167 298.5 256.5 303.833C253.833 309.166 249.833 314.5 247.167 317.166C244.5 319.833 243.167 321.166 240.5 323.833C237.833 326.5 236.5 326.5 233.833 329.166C231.166 331.833 228.5 333.166 225.833 335.833C223.166 338.5 220.5 345.531 220.5 350.5C220.5 355.469 222.32 361.653 225.833 365.167C229.347 368.681 235.531 370.5 240.5 370.5C245.469 370.5 251.653 368.68 255.167 365.167C258.681 361.653 260.5 350.5 260.5 350.5Z" fill="#FF5555"/>
<path d="M30.5 98C30.5 98 31.182 93.818 32.5 92.5C33.818 91.182 36.137 90.5 38 90.5C39.863 90.5 42.182 91.182 43.5 92.5C44.818 93.818 45.5 96.137 45.5 98C45.5 99.863 44.5 102.5 43.5 103.5C42.5 104.5 41.5 105 40.5 106C39.5 107 39 107 38 108C37 109 36.5 109.5 35.5 110.5C34.5 111.5 33 113.5 32 115.5C31 117.5 30.5 120.5 30.5 120.5C30.5 120.5 30 117.5 29 115.5C28 113.5 26.5 111.5 25.5 110.5C24.5 109.5 24 109 23 108C22 107 21.5 107 20.5 106C19.5 105 18.5 104.5 17.5 103.5C16.5 102.5 15.5 99.863 15.5 98C15.5 96.137 16.182 93.818 17.5 92.5C18.818 91.182 21.137 90.5 23 90.5C24.863 90.5 27.182 91.182 28.5 92.5C29.818 93.818 30.5 98 30.5 98Z" fill="#FF5555"/>
<path d="M330.5 443C330.5 443 331.182 447.182 332.5 448.5C333.818 449.818 336.137 450.5 338 450.5C339.863 450.5 342.182 449.818 343.5 448.5C344.818 447.182 345.5 444.863 345.5 443C345.5 441.137 344.5 438.5 343.5 437.5C342.5 436.5 341.5 436 340.5 435C339.5 434 339 434 338 433C337 432 336.5 431.5 335.5 430.5C334.5 429.5 333 427.5 332 425.5C331 423.5 330.5 420.5 330.5 420.5C330.5 420.5 330 423.5 329 425.5C328 427.5 326.5 429.5 325.5 430.5C324.5 431.5 324 432 323 433C322 434 321.5 434 320.5 435C319.5 436 318.5 436.5 317.5 437.5C316.5 438.5 315.5 441.137 315.5 443C315.5 444.863 316.182 447.182 317.5 448.5C318.818 449.818 321.137 450.5 323 450.5C324.863 450.5 327.182 449.818 328.5 448.5C329.818 447.182 330.5 443 330.5 443Z" fill="#FF5555"/>
</svg>
