<?xml version="1.0" standalone="no"?>
<!DOCTYPE svg PUBLIC "-//W3C//DTD SVG 20010904//EN"
 "http://www.w3.org/TR/2001/REC-SVG-20010904/DTD/svg10.dtd">
<svg version="1.0" xmlns="http://www.w3.org/2000/svg"
 width="20" height="20" viewBox="0 0 48.000000 48.000000"
 preserveAspectRatio="xMidYMid meet">

<g transform="translate(0.000000,48.000000) scale(0.100000,-0.100000)"
fill="#000000" stroke="none">
<path d="M180 403 c-21 -27 -23 -60 -6 -103 5 -13 -1 -15 -34 -12 -33 3 -46
-1 -66 -19 -33 -31 -32 -81 1 -114 28 -29 63 -32 105 -10 35 18 34 20 15 -35
-22 -64 -22 -65 45 -65 66 0 67 0 46 67 l-13 46 33 -14 c48 -20 71 -17 99 11
33 33 34 83 1 114 -20 18 -33 22 -66 19 -33 -3 -39 -1 -34 12 4 8 9 30 12 48
10 74 -91 114 -138 55z"/>
</g>
</svg>
