<?xml version="1.0" standalone="no"?>
<!DOCTYPE svg PUBLIC "-//W3C//DTD SVG 20010904//EN"
 "http://www.w3.org/TR/2001/REC-SVG-20010904/DTD/svg10.dtd">
<svg version="1.0" xmlns="http://www.w3.org/2000/svg"
 width="20" height="20" viewBox="0 0 48.000000 48.000000"
 preserveAspectRatio="xMidYMid meet">

<g transform="translate(0.000000,48.000000) scale(0.100000,-0.100000)"
fill="#000000" stroke="none">
<path d="M184 396 c-100 -68 -146 -145 -124 -210 16 -50 44 -70 96 -71 35 0
43 -3 38 -15 -3 -8 -8 -26 -10 -40 -5 -25 -4 -25 56 -25 60 0 61 0 56 25 -2
14 -7 32 -10 40 -5 12 3 15 38 15 52 1 80 21 96 71 15 45 -1 94 -47 145 -29
31 -120 99 -134 99 -2 0 -27 -15 -55 -34z"/>
</g>
</svg>
